<svg width="147" height="171" viewBox="0 0 147 171" fill="none" xmlns="http://www.w3.org/2000/svg">
<g filter="url(#filter0_d_12_238)">
<path d="M73.2783 0C111.54 0 142.557 30.8346 142.558 68.8711C142.558 90.0513 132.939 108.997 117.809 121.631L76.752 161.284C74.8144 163.155 71.7433 163.155 69.8057 161.284L28.7529 121.635C13.6201 109.001 4 90.0533 4 68.8711C4.00012 30.8348 35.017 0.000240766 73.2783 0Z" fill="white"/>
</g>
<circle cx="74.0576" cy="67.1387" r="59.5" fill="#FFD900"/>
<path d="M31.7605 45.9349C43.8414 45.9349 48.0213 42.881 50.3648 40.5197C52.7083 38.1469 55.7447 33.9438 55.7447 21.771C55.7447 21.3054 55.7927 20 57.2348 20C58.6629 20 58.722 21.3056 58.722 21.771C58.722 33.9438 61.7585 38.1469 64.102 40.5197C66.4539 42.881 70.6338 45.9349 82.7091 45.9349C83.1711 45.9349 84.4638 45.9889 84.4638 47.4391C84.4638 48.8809 83.171 48.9347 82.7091 48.9347C70.634 48.9347 66.4539 51.997 64.102 54.3612C61.7585 56.7254 58.722 60.9371 58.722 73.107C58.722 73.5752 58.6629 74.878 57.2348 74.878C55.7927 74.878 55.7447 73.5752 55.7447 73.107C55.7447 60.9371 52.7083 56.7252 50.3648 54.3612C48.0213 51.9913 43.8412 48.9347 31.7605 48.9347C31.2985 48.9347 30 48.8922 30 47.4362C30 45.9945 31.2985 45.9349 31.7605 45.9349Z" fill="white"/>
<path d="M69.8309 93.1386C78.1233 93.1386 80.9906 91.0412 82.599 89.4206C84.2073 87.7915 86.2916 84.9079 86.2916 76.5554C86.2916 76.2346 86.3226 75.3379 87.3112 75.3379C88.2942 75.3379 88.3337 76.2348 88.3337 76.5554C88.3337 84.9079 90.4152 87.7915 92.0263 89.4206C93.6375 91.0412 96.5049 93.1386 104.794 93.1386C105.11 93.1386 106 93.1727 106 94.1718C106 95.1595 105.11 95.1991 104.794 95.1991C96.5049 95.1991 93.6374 97.2994 92.0263 98.9171C90.4151 100.541 88.3337 103.43 88.3337 111.785C88.3337 112.103 88.2942 113 87.3112 113C86.3226 113 86.2916 112.103 86.2916 111.785C86.2916 103.43 84.2071 100.541 82.599 98.9171C80.9908 97.2936 78.1233 95.1991 69.8309 95.1991C69.5125 95.1991 68.6226 95.165 68.6226 94.166C68.6226 93.1784 69.5127 93.1386 69.8309 93.1386Z" fill="white"/>
<defs>
<filter id="filter0_d_12_238" x="0" y="0" width="146.558" height="170.688" filterUnits="userSpaceOnUse" color-interpolation-filters="sRGB">
<feFlood flood-opacity="0" result="BackgroundImageFix"/>
<feColorMatrix in="SourceAlpha" type="matrix" values="0 0 0 0 0 0 0 0 0 0 0 0 0 0 0 0 0 0 127 0" result="hardAlpha"/>
<feOffset dy="4"/>
<feGaussianBlur stdDeviation="2"/>
<feComposite in2="hardAlpha" operator="out"/>
<feColorMatrix type="matrix" values="0 0 0 0 0 0 0 0 0 0 0 0 0 0 0 0 0 0 0.25 0"/>
<feBlend mode="normal" in2="BackgroundImageFix" result="effect1_dropShadow_12_238"/>
<feBlend mode="normal" in="SourceGraphic" in2="effect1_dropShadow_12_238" result="shape"/>
</filter>
</defs>
</svg>
