<svg width="147" height="171" viewBox="0 0 147 171" fill="none" xmlns="http://www.w3.org/2000/svg">
<g filter="url(#filter0_d_12_194)">
<path d="M73.2783 0C111.54 0 142.557 30.8346 142.558 68.8711C142.558 90.0513 132.939 108.997 117.809 121.631L76.752 161.284C74.8144 163.155 71.7433 163.155 69.8057 161.284L28.7529 121.635C13.6201 109.001 4 90.0533 4 68.8711C4.00012 30.8348 35.017 0.000240766 73.2783 0Z" fill="white"/>
</g>
<circle cx="74.0576" cy="67.1387" r="59.5" fill="#E88F35"/>
<path d="M110.493 87.8777H35.5069C34.1227 87.8777 33 88.9935 33 90.3698V94.5203C33 103.036 50.9092 101.956 73 101.956C95.0908 101.956 113 101.616 113 94.5203V90.3698C113 88.9935 111.877 87.8777 110.493 87.8777Z" fill="white"/>
<path d="M39.7084 82.2209H106.291C108.778 82.2209 110.79 80.2158 110.79 77.7422V73.8114C110.79 71.3398 108.778 69.3364 106.291 69.3364H100.245L90.6886 78.848C88.243 81.284 84.2772 81.284 81.8298 78.848L72.2748 69.3364H39.7084C37.222 69.3364 35.2095 71.3398 35.2095 73.8114V77.7422C35.2095 80.2158 37.2222 82.2209 39.7084 82.2209Z" fill="white"/>
<path d="M73 32C50.9094 32 33 43.5302 33 58.839V62.0648C33 63.441 34.1227 64.5584 35.5069 64.5584H110.493C111.877 64.5584 113 63.4408 113 62.0648V58.839C113 43.5302 95.0906 32 73 32ZM53.1103 49.5979C51.6447 49.5979 50.4592 48.418 50.4592 46.9589C50.4592 45.5015 51.6447 44.3181 53.1103 44.3181C54.5744 44.3181 55.7631 45.5016 55.7631 46.9589C55.7631 48.418 54.5744 49.5979 53.1103 49.5979ZM65.0431 41.6789C63.5791 41.6789 62.392 40.4971 62.392 39.0399C62.392 37.5808 63.5792 36.4008 65.0431 36.4008C66.5088 36.4008 67.6959 37.5808 67.6959 39.0399C67.6959 40.4973 66.5088 41.6789 65.0431 41.6789ZM73 52.2388C71.5359 52.2388 70.3472 51.0553 70.3472 49.5981C70.3472 48.1407 71.5361 46.959 73 46.959C74.4641 46.959 75.6528 48.1408 75.6528 49.5981C75.6528 51.0553 74.4639 52.2388 73 52.2388ZM80.9569 41.6789C79.4913 41.6789 78.3041 40.4971 78.3041 39.0399C78.3041 37.5808 79.4913 36.4008 80.9569 36.4008C82.4209 36.4008 83.608 37.5808 83.608 39.0399C83.608 40.4973 82.4208 41.6789 80.9569 41.6789ZM92.8895 49.5979C91.4255 49.5979 90.2367 48.418 90.2367 46.9589C90.2367 45.5015 91.4256 44.3181 92.8895 44.3181C94.3553 44.3181 95.5406 45.5016 95.5406 46.9589C95.5406 48.418 94.3553 49.5979 92.8895 49.5979Z" fill="white"/>
<defs>
<filter id="filter0_d_12_194" x="0" y="0" width="146.558" height="170.688" filterUnits="userSpaceOnUse" color-interpolation-filters="sRGB">
<feFlood flood-opacity="0" result="BackgroundImageFix"/>
<feColorMatrix in="SourceAlpha" type="matrix" values="0 0 0 0 0 0 0 0 0 0 0 0 0 0 0 0 0 0 127 0" result="hardAlpha"/>
<feOffset dy="4"/>
<feGaussianBlur stdDeviation="2"/>
<feComposite in2="hardAlpha" operator="out"/>
<feColorMatrix type="matrix" values="0 0 0 0 0 0 0 0 0 0 0 0 0 0 0 0 0 0 0.25 0"/>
<feBlend mode="normal" in2="BackgroundImageFix" result="effect1_dropShadow_12_194"/>
<feBlend mode="normal" in="SourceGraphic" in2="effect1_dropShadow_12_194" result="shape"/>
</filter>
</defs>
</svg>
