<svg width="147" height="171" viewBox="0 0 147 171" fill="none" xmlns="http://www.w3.org/2000/svg">
<g filter="url(#filter0_d_12_207)">
<path d="M73.2783 0C111.54 0 142.557 30.8346 142.558 68.8711C142.558 90.0513 132.939 108.997 117.809 121.631L76.752 161.284C74.8144 163.155 71.7433 163.155 69.8057 161.284L28.7529 121.635C13.6201 109.001 4 90.0533 4 68.8711C4.00012 30.8348 35.017 0.000240766 73.2783 0Z" fill="white"/>
</g>
<circle cx="74.0576" cy="67.1387" r="59.5" fill="#E84335"/>
<path d="M93.3472 26C84.1479 26 76.6921 35.1744 76.6921 45.5291C76.6921 51.8311 79.6653 57.3884 83.2992 60.8484C86.4884 63.888 88.4477 66.2285 88.8392 71.307V104.793C88.8392 107.115 90.7298 109 93.0601 109H93.632C95.9622 109 97.8529 107.115 97.8529 104.793V71.3069C98.2442 66.2283 100.204 63.8878 103.393 60.8483C107.027 57.3882 110 51.8309 110 45.529C110 35.1744 102.541 26 93.3472 26Z" fill="white"/>
<path d="M63.5361 29.9793V47.71C63.5361 48.8421 62.6163 49.7616 61.4802 49.7616H60.9287C59.7953 49.7616 58.8728 48.8421 58.8728 47.71V29.8982C58.8728 26.9777 56.9008 26.1013 55.0076 26.1013C53.1169 26.1013 51.1449 26.9777 51.1449 29.8982V47.71C51.1449 48.8421 50.2224 49.7616 49.0866 49.7616H48.5377C47.4018 49.7616 46.4818 48.8421 46.4818 47.71V29.9793C46.4818 24.7487 39.0004 24.926 39.0004 30.0375C39.0004 36.1571 39.0004 46.9678 39.0004 46.9678C38.9648 56.3702 41.219 58.8094 44.9393 61.74C47.938 64.1008 50.502 65.4483 50.502 71.3095V104.793C50.502 107.115 52.3901 109 54.7229 109H55.2948C57.6251 109 59.5157 107.115 59.5157 104.793V71.3095C59.5157 65.4483 62.0773 64.1007 65.076 61.74C68.7989 58.8094 71.0529 56.3702 71.0173 46.9678C71.0173 46.9678 71.0173 36.1571 71.0173 30.0375C71.0175 24.926 63.5361 24.7487 63.5361 29.9793Z" fill="white"/>
<defs>
<filter id="filter0_d_12_207" x="0" y="0" width="146.558" height="170.688" filterUnits="userSpaceOnUse" color-interpolation-filters="sRGB">
<feFlood flood-opacity="0" result="BackgroundImageFix"/>
<feColorMatrix in="SourceAlpha" type="matrix" values="0 0 0 0 0 0 0 0 0 0 0 0 0 0 0 0 0 0 127 0" result="hardAlpha"/>
<feOffset dy="4"/>
<feGaussianBlur stdDeviation="2"/>
<feComposite in2="hardAlpha" operator="out"/>
<feColorMatrix type="matrix" values="0 0 0 0 0 0 0 0 0 0 0 0 0 0 0 0 0 0 0.25 0"/>
<feBlend mode="normal" in2="BackgroundImageFix" result="effect1_dropShadow_12_207"/>
<feBlend mode="normal" in="SourceGraphic" in2="effect1_dropShadow_12_207" result="shape"/>
</filter>
</defs>
</svg>
