<svg width="147" height="171" viewBox="0 0 147 171" fill="none" xmlns="http://www.w3.org/2000/svg">
<g filter="url(#filter0_d_12_223)">
<path d="M73.2783 0C111.54 0 142.557 30.8346 142.558 68.8711C142.558 90.0513 132.939 108.997 117.809 121.631L76.752 161.284C74.8144 163.155 71.7433 163.155 69.8057 161.284L28.7529 121.635C13.6201 109.001 4 90.0533 4 68.8711C4.00012 30.8348 35.017 0.000240766 73.2783 0Z" fill="white"/>
</g>
<circle cx="74.0576" cy="67.1387" r="59.5" fill="#0088FF"/>
<path d="M101.015 47.324H44.9851L39 106H107L101.015 47.324ZM57.7809 60.9532C56.3951 60.9532 55.273 59.8239 55.273 58.432C55.273 57.0399 56.3951 55.9108 57.7809 55.9108C59.1668 55.9108 60.2888 57.0399 60.2888 58.432C60.289 59.8239 59.1668 60.9532 57.7809 60.9532ZM88.2176 60.9532C86.8316 60.9532 85.7097 59.8239 85.7097 58.432C85.7097 57.0399 86.8318 55.9108 88.2176 55.9108C89.6034 55.9108 90.7255 57.0399 90.7255 58.432C90.7255 59.8239 89.6034 60.9532 88.2176 60.9532Z" fill="white"/>
<path d="M63.5414 34.9722C65.9684 32.5363 69.2993 31.0353 72.9999 31.0341C76.7005 31.0353 80.0316 32.5363 82.4584 34.9722C84.8815 37.4121 86.3747 40.7607 86.3759 44.4809H90.3886C90.3872 34.825 82.6047 27.0014 72.9998 27C63.3951 27.0014 55.6125 34.825 55.6111 44.4809H59.6239C59.6253 40.7607 61.1184 37.4121 63.5414 34.9722Z" fill="white"/>
<defs>
<filter id="filter0_d_12_223" x="0" y="0" width="146.558" height="170.688" filterUnits="userSpaceOnUse" color-interpolation-filters="sRGB">
<feFlood flood-opacity="0" result="BackgroundImageFix"/>
<feColorMatrix in="SourceAlpha" type="matrix" values="0 0 0 0 0 0 0 0 0 0 0 0 0 0 0 0 0 0 127 0" result="hardAlpha"/>
<feOffset dy="4"/>
<feGaussianBlur stdDeviation="2"/>
<feComposite in2="hardAlpha" operator="out"/>
<feColorMatrix type="matrix" values="0 0 0 0 0 0 0 0 0 0 0 0 0 0 0 0 0 0 0.25 0"/>
<feBlend mode="normal" in2="BackgroundImageFix" result="effect1_dropShadow_12_223"/>
<feBlend mode="normal" in="SourceGraphic" in2="effect1_dropShadow_12_223" result="shape"/>
</filter>
</defs>
</svg>
