<svg width="147" height="171" viewBox="0 0 147 171" fill="none" xmlns="http://www.w3.org/2000/svg">
<g filter="url(#filter0_d_12_180)">
<path d="M73.2783 0C111.54 0 142.557 30.8346 142.558 68.8711C142.558 90.0513 132.939 108.997 117.809 121.631L76.752 161.284C74.8144 163.155 71.7433 163.155 69.8057 161.284L28.7529 121.635C13.6201 109.001 4 90.0533 4 68.8711C4.00012 30.8348 35.017 0.000240766 73.2783 0Z" fill="white"/>
</g>
<circle cx="74.0576" cy="67.1387" r="59.5" fill="#77909B"/>
<path d="M54.4042 41.1983C58.8845 41.1983 62.5157 37.5701 62.5157 33.1022C62.5157 28.6234 58.886 25 54.4042 25C49.9208 25 46.2913 28.6234 46.2913 33.1022C46.2913 37.5701 49.9208 41.1983 54.4042 41.1983Z" fill="white"/>
<path d="M61.4338 45.0343H47.2088C43.278 45.0343 39 49.305 39 53.2306V80.451C39 82.4139 40.5932 84.003 42.5581 84.003C43.5245 84.003 42.5581 84.003 45.0416 84.003L46.3961 107.217C46.3961 109.308 48.0915 111 50.1839 111C51.0666 111 52.6952 111 54.3219 111C55.9473 111 57.5757 111 58.4583 111C60.551 111 62.2463 109.308 62.2463 107.217L63.5991 84.003C66.0843 84.003 65.1165 84.003 66.0843 84.003C68.049 84.003 69.6409 82.4139 69.6409 80.451V53.2306C69.6411 49.305 65.3646 45.0343 61.4338 45.0343Z" fill="white"/>
<path d="M92.4447 41.1983C96.9251 41.1983 100.558 37.5701 100.558 33.1022C100.558 28.6234 96.9251 25 92.4447 25C87.9613 25 84.3317 28.6234 84.3317 33.1022C84.3315 37.5701 87.9613 41.1983 92.4447 41.1983Z" fill="white"/>
<path d="M111.771 88.3133L103.364 68.5796L106.161 54.4932C106.452 49.1454 102.422 45.136 98.4911 45.136H86.3967C82.4672 45.136 78.4374 49.1454 78.7267 54.4932L81.5253 68.5796L73.1168 88.3133C72.7409 89.1974 72.8338 90.2138 73.3648 91.0161C73.896 91.8181 74.7953 92.3014 75.7603 92.3014H84.6221L86.9141 107.834C86.9141 109.355 88.1513 110.59 89.6762 110.59C90.2286 110.59 94.6588 110.59 95.2112 110.59C96.7376 110.59 97.9733 109.355 97.9733 107.834L100.265 92.3014H109.127C110.092 92.3014 110.992 91.8181 111.523 91.0161C112.055 90.2138 112.148 89.1974 111.771 88.3133Z" fill="white"/>
<defs>
<filter id="filter0_d_12_180" x="0" y="0" width="146.558" height="170.688" filterUnits="userSpaceOnUse" color-interpolation-filters="sRGB">
<feFlood flood-opacity="0" result="BackgroundImageFix"/>
<feColorMatrix in="SourceAlpha" type="matrix" values="0 0 0 0 0 0 0 0 0 0 0 0 0 0 0 0 0 0 127 0" result="hardAlpha"/>
<feOffset dy="4"/>
<feGaussianBlur stdDeviation="2"/>
<feComposite in2="hardAlpha" operator="out"/>
<feColorMatrix type="matrix" values="0 0 0 0 0 0 0 0 0 0 0 0 0 0 0 0 0 0 0.25 0"/>
<feBlend mode="normal" in2="BackgroundImageFix" result="effect1_dropShadow_12_180"/>
<feBlend mode="normal" in="SourceGraphic" in2="effect1_dropShadow_12_180" result="shape"/>
</filter>
</defs>
</svg>
