<!--?xml version="1.0" encoding="utf-8"?-->
<!-- Generator: Adobe Illustrator 18.1.1, SVG Export Plug-In . SVG Version: 6.00 Build 0)  -->

<svg version="1.1" id="_x32_" xmlns="http://www.w3.org/2000/svg" xmlns:xlink="http://www.w3.org/1999/xlink" x="0px" y="0px" viewBox="0 0 512 512" style="width: 256px; height: 256px; opacity: 1;" xml:space="preserve">
<style type="text/css">
	.st0{fill:#4B4B4B;}
</style>
<g>
	<path class="st0" d="M130.622,96.436c26.628,0,48.209-21.6,48.209-48.2C178.831,21.572,157.259,0,130.622,0
		c-26.646,0-48.217,21.572-48.217,48.236C82.405,74.836,103.976,96.436,130.622,96.436z" style="fill: rgb(75, 75, 75);"></path>
	<path class="st0" d="M172.401,119.274h-42.267H87.858c-23.362,0-48.787,25.425-48.787,48.796v162.056
		c0,11.686,9.469,21.147,21.147,21.147c5.743,0,0,0,14.76,0l8.05,138.205c0,12.445,10.076,22.521,22.512,22.521
		c5.246,0,14.925,0,24.593,0c9.66,0,19.338,0,24.584,0c12.437,0,22.513-10.076,22.513-22.521l8.04-138.205c14.77,0,9.018,0,14.77,0
		c11.677,0,21.138-9.461,21.138-21.147V168.07C221.179,144.699,195.763,119.274,172.401,119.274z" style="fill: rgb(75, 75, 75);"></path>
	<path class="st0" d="M356.707,96.436c26.628,0,48.217-21.6,48.217-48.2C404.924,21.572,383.335,0,356.707,0
		c-26.646,0-48.218,21.572-48.218,48.236C308.488,74.836,330.061,96.436,356.707,96.436z" style="fill: rgb(75, 75, 75);"></path>
	<path class="st0" d="M471.567,376.934L421.603,259.45l16.624-83.863c1.728-31.838-22.223-55.708-45.585-55.708h-71.88
		c-23.354,0-47.304,23.87-45.585,55.708l16.633,83.863l-49.974,117.484c-2.234,5.264-1.682,11.315,1.474,16.091
		c3.157,4.775,8.502,7.652,14.237,7.652h52.668l13.622,92.475c0,9.054,7.353,16.407,16.416,16.407c3.283,0,29.613,0,32.896,0
		c9.072,0,16.416-7.354,16.416-16.407l13.622-92.475h52.669c5.734,0,11.08-2.877,14.236-7.652
		C473.259,388.249,473.81,382.198,471.567,376.934z" style="fill: rgb(75, 75, 75);"></path>
</g>
</svg>
