<!--?xml version="1.0" encoding="utf-8"?-->
<!-- Generator: Adobe Illustrator 15.1.0, SVG Export Plug-In . SVG Version: 6.00 Build 0)  -->

<svg version="1.1" id="_x32_" xmlns="http://www.w3.org/2000/svg" xmlns:xlink="http://www.w3.org/1999/xlink" x="0px" y="0px" width="512px" height="512px" viewBox="0 0 512 512" style="width: 256px; height: 256px; opacity: 1;" xml:space="preserve">
<style type="text/css">

	.st0{fill:#4B4B4B;}

</style>
<g>
	<path class="st0" d="M457.031,142.781c-67.016,0-90.203-16.813-103.203-29.813c-13-13.063-29.844-36.203-29.844-103.219
		c0-2.563-0.266-9.75-8.266-9.75c-7.922,0-8.25,7.188-8.25,9.75c0,67.016-16.844,90.156-29.844,103.219
		c-13.047,13-36.234,29.813-103.219,29.813c-2.563,0-9.734,0.297-9.734,8.281c0,7.938,7.172,8.234,9.734,8.234
		c66.984,0,90.172,16.859,103.219,29.875c13,13.016,29.844,36.203,29.844,103.203c0,2.578,0.328,9.75,8.25,9.75
		c8,0,8.266-7.172,8.266-9.75c0-67,16.844-90.188,29.844-103.203c13-13.047,36.188-29.875,103.203-29.875
		c2.563,0,9.766-0.234,9.766-8.25C466.797,143.109,459.594,142.781,457.031,142.781z" style="fill: rgb(255, 255, 255);"></path>
	<path class="st0" d="M245.844,402.656c-46,0-61.906-11.547-70.828-20.469c-8.922-8.969-20.484-24.844-20.484-70.828
		c0-1.766-0.172-6.703-5.656-6.703c-5.453,0-5.672,4.938-5.672,6.703c0,45.984-11.547,61.859-20.484,70.828
		c-8.938,8.922-24.844,20.469-70.828,20.469c-1.75,0-6.688,0.188-6.688,5.688c0,5.438,4.938,5.656,6.688,5.656
		c45.984,0,61.891,11.563,70.828,20.469c8.938,8.938,20.484,24.844,20.484,70.844c0,1.75,0.219,6.688,5.672,6.688
		c5.484,0,5.656-4.938,5.656-6.688c0-46,11.563-61.906,20.484-70.844S199.844,414,245.844,414c1.766,0,6.703-0.188,6.703-5.688
		C252.547,402.875,247.609,402.656,245.844,402.656z" style="fill: rgb(255, 255, 255);"></path>
</g>
</svg>
