<!--?xml version="1.0" encoding="utf-8"?-->
<!-- Generator: Adobe Illustrator 18.1.1, SVG Export Plug-In . SVG Version: 6.00 Build 0)  -->

<svg version="1.1" id="_x32_" xmlns="http://www.w3.org/2000/svg" xmlns:xlink="http://www.w3.org/1999/xlink" x="0px" y="0px" viewBox="0 0 512 512" style="width: 256px; height: 256px; opacity: 1;" xml:space="preserve">
<style type="text/css">
	.st0{fill:#4B4B4B;}
</style>
<g>
	<path class="st0" d="M438.528,131.72H73.472L34.477,512h443.047L438.528,131.72z M156.842,220.051
		c-9.029,0-16.34-7.319-16.34-16.34c0-9.022,7.311-16.34,16.34-16.34c9.03,0,16.34,7.318,16.34,16.34
		C173.183,212.732,165.872,220.051,156.842,220.051z M355.149,220.051c-9.03,0-16.34-7.319-16.34-16.34
		c0-9.022,7.311-16.34,16.34-16.34c9.029,0,16.34,7.318,16.34,16.34C371.489,212.732,364.178,220.051,355.149,220.051z" style="fill: rgb(255, 255, 255);"></path>
	<path class="st0" d="M194.374,51.668c15.813-15.787,37.515-25.515,61.626-25.523c24.111,0.008,45.814,9.736,61.626,25.523
		c15.787,15.813,25.516,37.515,25.524,61.626h26.144C369.285,50.714,318.579,0.009,255.999,0
		c-62.578,0.009-113.285,50.714-113.294,113.294h26.145C168.859,89.183,178.587,67.481,194.374,51.668z" style="fill: rgb(255, 255, 255);"></path>
</g>
</svg>
